<?xml version="1.0" standalone="no"?>
<!DOCTYPE svg PUBLIC "-//W3C//DTD SVG 20010904//EN"
 "http://www.w3.org/TR/2001/REC-SVG-20010904/DTD/svg10.dtd">
<svg version="1.0" xmlns="http://www.w3.org/2000/svg"
 width="700.000000pt" height="700.000000pt" viewBox="0 0 700.000000 700.000000"
 preserveAspectRatio="xMidYMid meet">
<metadata>
</metadata>
<g transform="translate(0.000000,700.000000) scale(0.100000,-0.100000)"
fill="#000000" stroke="none">
<path d="M3278 6996 c-1 -2 -42 -6 -89 -10 -47 -4 -95 -8 -105 -10 -10 -2 -41
-7 -69 -10 -48 -6 -132 -21 -185 -31 -14 -3 -38 -8 -55 -11 -68 -12 -238 -58
-354 -96 -984 -319 -1772 -1053 -2164 -2014 -61 -148 -122 -333 -153 -464 -18
-79 -54 -254 -59 -290 -3 -25 -8 -56 -11 -70 -5 -29 -10 -70 -21 -190 -15
-159 -8 -603 11 -708 2 -9 7 -44 11 -77 4 -32 9 -68 11 -80 2 -11 6 -33 8 -50
10 -70 71 -322 102 -418 l18 -58 18 103 c9 57 19 117 22 133 8 47 51 191 87
290 57 156 188 393 268 484 11 13 21 27 21 30 0 3 21 29 46 56 288 317 569
508 999 678 114 45 383 132 470 152 11 3 49 12 85 20 36 8 76 18 90 21 14 3
45 10 70 15 25 6 56 13 70 15 14 3 50 9 80 15 60 11 66 12 215 35 55 8 111 17
125 19 14 2 84 11 155 20 125 15 159 19 243 30 20 2 134 16 252 30 226 26 239
28 390 50 52 8 115 17 140 20 61 8 95 14 165 26 33 6 74 13 90 16 72 11 280
57 400 88 132 35 402 121 420 134 6 4 33 16 60 26 76 28 277 130 378 193 305
188 452 380 465 602 4 73 0 96 -22 163 -38 115 -88 185 -194 279 -66 59 -252
201 -252 194 0 -3 12 -41 26 -83 50 -145 39 -314 -28 -446 -112 -221 -389
-398 -821 -526 -133 -40 -478 -105 -662 -126 -89 -9 -139 -15 -185 -20 -103
-10 -148 -15 -200 -20 -30 -3 -71 -7 -90 -10 -19 -2 -61 -6 -92 -9 -115 -11
-173 -18 -198 -21 -14 -2 -59 -7 -100 -10 -41 -4 -83 -9 -92 -10 -9 -2 -48 -6
-85 -10 -37 -3 -79 -8 -93 -10 -14 -3 -47 -7 -75 -11 -27 -3 -61 -7 -75 -9
-24 -4 -45 -6 -150 -20 -25 -3 -101 -15 -170 -26 -69 -11 -141 -22 -160 -25
-19 -3 -44 -7 -55 -10 -18 -4 -17 -3 4 16 40 35 140 85 256 130 61 24 119 47
130 51 38 16 210 68 345 104 74 19 151 40 170 45 19 6 114 28 210 50 405 94
759 220 995 355 213 122 372 273 438 415 65 139 59 301 -16 443 -63 120 -217
254 -378 329 -56 27 -274 68 -549 104 -47 6 -546 15 -552 10z"/>
<path d="M6444 5368 c-6 -7 -16 -26 -24 -43 -31 -65 -125 -210 -183 -283 -65
-82 -225 -245 -294 -300 -23 -19 -51 -41 -62 -50 -10 -10 -29 -24 -41 -32 -12
-8 -28 -20 -34 -26 -23 -21 -214 -143 -304 -194 -268 -150 -607 -280 -968
-370 -93 -23 -178 -44 -189 -46 -11 -2 -76 -15 -145 -29 -148 -29 -414 -71
-575 -91 -22 -2 -56 -7 -75 -9 -19 -3 -53 -8 -75 -10 -44 -6 -107 -14 -145
-20 -30 -5 -76 -11 -190 -25 -47 -6 -101 -13 -120 -16 -19 -3 -48 -7 -65 -9
-404 -56 -782 -145 -1070 -253 -674 -253 -1066 -665 -1166 -1227 -14 -75 -18
-381 -7 -455 48 -320 181 -613 410 -904 119 -150 259 -275 443 -392 29 -19 29
-18 -11 41 -103 153 -205 394 -240 570 -46 230 -49 471 -8 659 85 388 314 690
690 912 80 47 126 70 269 133 11 5 54 21 95 36 41 15 86 31 100 36 75 26 389
100 487 114 21 3 61 10 88 15 28 5 68 12 90 15 22 3 94 15 160 26 66 12 131
23 145 25 23 3 427 78 475 88 209 43 290 61 390 86 66 17 127 32 135 34 207
52 835 247 891 276 70 38 -81 -99 -201 -182 -401 -276 -943 -507 -1710 -730
-136 -39 -560 -228 -560 -250 0 -4 -6 -8 -13 -8 -7 0 -53 -27 -103 -61 -357
-243 -571 -529 -663 -884 -49 -189 -47 -431 5 -640 103 -413 377 -752 655
-811 150 -31 183 -37 284 -50 22 -3 51 -7 65 -10 149 -25 632 -25 840 1 33 4
180 26 205 31 11 2 34 6 50 9 338 63 742 213 1039 384 49 28 91 51 93 51 9 0
267 179 343 239 610 475 1057 1158 1241 1896 36 144 33 132 50 225 7 41 13 77
14 80 1 3 5 32 9 65 4 33 10 71 12 85 25 145 24 755 -1 833 -2 7 -6 35 -9 62
-3 28 -8 60 -10 71 -2 12 -7 39 -10 60 -8 49 -54 259 -66 299 -101 339 -207
591 -361 853 -48 82 -68 109 -75 100z"/>
</g>
</svg>
