<svg width="21" height="21" viewBox="0 0 21 21" fill="none" xmlns="http://www.w3.org/2000/svg">
<path d="M18.1752 6.46352C16.384 8.16707 13.8913 8.85601 11.5051 9.20048C9.37563 9.51363 7.15225 9.64515 5.24828 10.4719C3.25663 11.3424 2.00402 12.7829 2.10423 15.0126C2.16686 16.3529 2.88711 17.6619 3.90173 18.6702C4.18356 18.8957 4.47166 19.1086 4.77229 19.3028C4.7535 19.2652 4.73471 19.2214 4.7034 19.1838C3.49463 17.5241 2.55517 12.7704 8.88085 11.737C10.1522 11.5303 11.4236 11.3174 12.6888 11.0293C13.8036 10.7725 15.7953 10.1462 16.0145 10.0272C16.1961 9.92073 14.8307 11.4552 10.647 12.6577C4.00194 14.5679 6.04369 20.0857 8.07292 20.7182C8.84953 20.9061 9.66373 21.0001 10.4967 21.0001C16.2963 21.0001 20.9998 16.3028 20.9998 10.5032C20.9998 8.41759 20.3923 6.47605 19.3464 4.84766C19.0646 5.46143 18.67 5.98753 18.1752 6.46352Z" fill="#00CC45"/>
<path d="M0 10.5031C0 11.6555 0.187891 12.7516 0.526096 13.7912C0.651357 12.6514 1.03967 11.5741 1.76618 10.6597C3.08142 8.98747 5.12317 8.20459 7.24635 7.78497C9.36326 7.37161 11.618 7.3215 13.7912 6.79541C14.9937 6.50731 16.215 6.03758 17.1858 5.26722C17.9937 4.61587 18.3695 3.6263 17.5303 2.70564C17.2234 2.43006 16.8977 2.16701 16.5595 1.92902C17.1733 3.18789 16.6973 5.06054 11.7182 5.54906C10.4405 5.68058 9.1691 5.79958 7.91023 5.97495C7.54071 6.02505 7.08351 6.09395 6.61378 6.17536C6.61378 6.17536 7.02714 5.6618 9.94572 4.99791C15.9457 3.64509 14.8246 1.0334 13.0459 0.313152C12.2317 0.112735 11.3737 0 10.4969 0C4.69729 0.00626305 0 4.70355 0 10.5031Z" fill="#00CC45"/>
</svg>
