<svg width="293" height="293" viewBox="0 0 293 293" fill="none" xmlns="http://www.w3.org/2000/svg">
<path d="M253.59 90.1858C228.598 113.954 193.819 123.567 160.526 128.373C130.815 132.742 99.7934 134.577 73.2286 146.112C45.4403 158.258 27.9634 178.357 29.3616 209.466C30.2354 228.166 40.2846 246.429 54.4409 260.498C58.3732 263.644 62.3929 266.615 66.5873 269.324C66.3252 268.8 66.063 268.188 65.6261 267.664C48.7609 244.507 35.6533 178.182 123.912 163.764C141.651 160.88 159.39 157.909 177.041 153.889C192.596 150.306 220.384 141.568 223.442 139.908C225.977 138.422 206.927 159.831 148.554 176.609C55.8391 203.261 84.3264 280.247 112.639 289.073C123.475 291.694 134.835 293.005 146.457 293.005C227.375 293.005 293.001 227.467 293.001 146.549C293.001 117.45 284.524 90.3606 269.931 67.6406C265.999 76.2043 260.493 83.5446 253.59 90.1858Z" fill="black"/>
<path d="M0 146.544C0 162.623 2.62153 177.915 7.3403 192.421C9.08798 176.517 14.5058 161.487 24.6424 148.728C42.9932 125.397 71.4805 114.474 101.104 108.619C130.64 102.852 162.098 102.152 192.421 94.8122C209.198 90.7925 226.238 84.2386 239.783 73.4904C251.056 64.4024 256.299 50.5956 244.589 37.7501C240.307 33.9052 235.763 30.235 231.045 26.9144C239.608 44.4787 232.967 70.6067 163.496 77.4227C145.67 79.2577 127.931 80.918 110.367 83.3648C105.211 84.0639 98.8318 85.0251 92.278 86.1611C92.278 86.1611 98.0454 78.9956 138.767 69.7328C222.481 50.8578 206.839 14.4184 182.022 4.36923C170.662 1.57292 158.69 0 146.456 0C65.5384 0.0873845 0 65.6258 0 146.544Z" fill="black"/>
</svg>
