<svg width="403" height="144" viewBox="0 0 403 144" fill="none" xmlns="http://www.w3.org/2000/svg">
<path d="M66.9692 63.5846L86.111 2.11328H97.4429L116.673 63.5846H66.9612H66.9692ZM78.825 55.3315H104.648L92.0913 13.0019H91.5674L78.8331 55.3315H78.825Z" fill="#F04B23"/>
<path d="M133.8 2.11328H123.878V63.5927H133.8V2.11328Z" fill="#F04B23"/>
<path d="M145.567 63.5846V2.11328H155.497V40.0503L173.76 18.7969H185.882L166.474 40.0503L186.406 63.5846H173.849L155.497 41.1948V63.5846H145.567Z" fill="#F04B23"/>
<path d="M232.164 44.2732H199.756C200.634 52.2684 205.204 56.8302 212.055 56.8302C216.794 56.8302 220.219 54.8072 222.508 49.8908L231.382 52.5263C228.134 60.4329 221.549 64.4708 211.974 64.4708C198.007 64.4708 189.931 54.2833 189.931 41.1944C189.931 28.1054 197.918 17.918 211.885 17.918C224.354 17.918 232.438 26.5257 232.438 39.9612C232.438 41.3636 232.349 43.032 232.172 44.2651M199.852 37.2371H223.04C222.25 29.5965 217.946 25.5586 211.885 25.5586C205.389 25.5586 200.997 29.8624 199.852 37.2371Z" fill="#F04B23"/>
<path d="M241.907 63.5959V42.6971C241.907 34.7019 241.907 26.8034 241.472 18.8082H250.87L251.748 25.7476H252.361C255.343 20.5652 260.437 17.9297 266.062 17.9297C272.736 17.9297 277.128 20.9118 279.586 26.7067H280.288C283.278 20.9118 288.629 17.9297 295.045 17.9297C304.443 17.9297 309.802 23.636 309.802 35.5804V63.5959H299.881V37.4261C299.881 30.3094 296.721 26.6261 291.362 26.6261C285.123 26.6261 280.82 31.6312 280.82 38.5706V63.604H270.898V37.4342C270.898 30.3174 267.739 26.6342 262.379 26.6342C256.141 26.6342 251.837 31.6392 251.837 38.5786V63.6121H241.915L241.907 63.5959Z" fill="#F04B23"/>
<path d="M319.268 6.49612C319.268 2.71612 322.25 0 326.118 0C329.987 0 332.88 2.72418 332.88 6.49612C332.88 10.2681 329.898 12.9116 326.118 12.9116C322.338 12.9116 319.268 10.1875 319.268 6.49612ZM321.113 18.7066H331.035V63.4943H321.113V18.7066Z" fill="#F04B23"/>
<path d="M0.0161194 111.845C0.0161194 92.9609 11.348 80.2266 28.1202 80.2266C40.1533 80.2266 49.8169 86.1101 53.5002 98.8445L43.8366 101.746C41.0238 92.8722 35.4948 88.8343 28.1122 88.8343C17.2235 88.8343 10.0182 97.4421 10.0182 111.845C10.0182 126.247 17.2155 134.855 28.1122 134.855C35.6641 134.855 41.2817 130.906 44.2718 121.944L54.016 124.845C50.0667 137.757 40.4032 143.463 28.1041 143.463C11.3319 143.463 0 130.729 0 111.845" fill="#F04B23"/>
<path d="M61.1392 120.093C61.1392 107.012 69.215 96.8164 83.1824 96.8164C97.1499 96.8164 105.314 107.004 105.314 120.093C105.314 133.182 97.1499 143.369 83.1824 143.369C69.215 143.369 61.1392 133.182 61.1392 120.093ZM95.3042 120.093C95.3042 111.138 90.4764 105.336 83.1824 105.336C75.8884 105.336 71.0606 111.13 71.0606 120.093C71.0606 129.055 75.8884 134.85 83.1824 134.85C90.4764 134.85 95.3042 129.055 95.3042 120.093Z" fill="#F04B23"/>
<path d="M124.711 81.0742H114.789V142.554H124.711V81.0742Z" fill="#F04B23"/>
<path d="M146.408 81.0742H136.486V142.554H146.408V81.0742Z" fill="#F04B23"/>
<path d="M198.225 123.172H165.817C166.695 131.167 171.257 135.729 178.108 135.729C182.847 135.729 186.272 133.706 188.561 128.789L197.435 131.425C194.187 139.331 187.602 143.369 178.027 143.369C164.06 143.369 155.984 133.182 155.984 120.093C155.984 107.004 163.979 96.8164 177.939 96.8164C190.407 96.8164 198.491 105.424 198.491 118.86C198.491 120.262 198.402 121.93 198.225 123.164M165.906 116.136H189.093C188.303 108.495 184 104.457 177.939 104.457C171.435 104.457 167.05 108.761 165.906 116.136Z" fill="#F04B23"/>
<path d="M205.769 120.093C205.769 107.012 213.845 96.8164 227.812 96.8164C237.298 96.8164 244.673 101.386 247.486 110.864L237.999 113.766C236.065 107.882 232.471 105.247 227.723 105.247C220.526 105.247 215.69 111.13 215.69 120.093C215.69 129.055 220.518 134.939 227.723 134.939C232.462 134.939 236.331 132.303 238.435 126.42L247.921 129.321C244.931 138.719 237.121 143.369 227.812 143.369C213.845 143.369 205.769 133.182 205.769 120.093Z" fill="#F04B23"/>
<path d="M262.053 129.743V105.943H253.357V97.8668H262.666L264.6 85.3984H271.975V97.8668H284.443V105.943H271.975V129.308C271.975 133.523 274.344 135.369 277.423 135.369C279.446 135.369 281.203 134.933 283.218 133.7L285.942 140.551C282.517 142.743 279.358 143.533 275.489 143.533C267.494 143.533 262.053 138.963 262.053 129.743Z" fill="#F04B23"/>
<path d="M292.96 85.668C292.96 81.888 295.95 79.1719 299.811 79.1719C303.671 79.1719 306.573 81.8961 306.573 85.668C306.573 89.4399 303.583 92.0835 299.811 92.0835C296.039 92.0835 292.96 89.3593 292.96 85.668ZM294.806 97.8784H304.727V142.666H294.806V97.8784Z" fill="#F04B23"/>
<path d="M327.92 142.628L312.026 97.832H322.471L333.892 133.399H334.416L345.748 97.832H355.935L340.041 142.628H327.92Z" fill="#F04B23"/>
<path d="M402.734 123.172H370.326C371.204 131.167 375.774 135.729 382.617 135.729C387.356 135.729 390.781 133.706 393.07 128.789L401.944 131.425C398.696 139.331 392.111 143.369 382.536 143.369C368.569 143.369 360.493 133.182 360.493 120.093C360.493 107.004 368.488 96.8164 382.448 96.8164C394.916 96.8164 403 105.424 403 118.86C403 120.262 402.911 121.93 402.734 123.164M370.415 116.136H393.602C392.812 108.495 388.509 104.457 382.448 104.457C375.944 104.457 371.559 108.761 370.415 116.136Z" fill="#F04B23"/>
</svg>
