<svg width="635" height="390" viewBox="0 0 635 390" fill="none" xmlns="http://www.w3.org/2000/svg">
<rect width="635" height="390" fill="#DAE0E9"/>
<path d="M182.969 186.585L202.111 125.113H213.443L232.673 186.585H182.961H182.969ZM194.825 178.331H220.648L208.091 136.002H207.567L194.833 178.331H194.825Z" fill="#F04B23"/>
<path d="M249.8 125.113H239.878V186.593H249.8V125.113Z" fill="#F04B23"/>
<path d="M261.567 186.585V125.113H271.497V163.05L289.76 141.797H301.882L282.474 163.05L302.406 186.585H289.849L271.497 164.195V186.585H261.567Z" fill="#F04B23"/>
<path d="M348.164 167.273H315.756C316.634 175.268 321.204 179.83 328.055 179.83C332.794 179.83 336.219 177.807 338.508 172.891L347.382 175.526C344.134 183.433 337.549 187.471 327.974 187.471C314.007 187.471 305.931 177.283 305.931 164.194C305.931 151.105 313.918 140.918 327.885 140.918C340.354 140.918 348.438 149.526 348.438 162.961C348.438 164.364 348.349 166.032 348.172 167.265M315.852 160.237H339.04C338.25 152.596 333.946 148.559 327.885 148.559C321.389 148.559 316.997 152.862 315.852 160.237Z" fill="#F04B23"/>
<path d="M357.907 186.596V165.697C357.907 157.702 357.907 149.803 357.472 141.808H366.87L367.748 148.748H368.361C371.343 143.565 376.437 140.93 382.062 140.93C388.736 140.93 393.128 143.912 395.586 149.707H396.288C399.278 143.912 404.629 140.93 411.045 140.93C420.443 140.93 425.802 146.636 425.802 158.58V186.596H415.881V160.426C415.881 153.309 412.721 149.626 407.362 149.626C401.123 149.626 396.82 154.631 396.82 161.571V186.604H386.898V160.434C386.898 153.317 383.739 149.634 378.379 149.634C372.141 149.634 367.837 154.639 367.837 161.579V186.612H357.915L357.907 186.596Z" fill="#F04B23"/>
<path d="M435.268 129.496C435.268 125.716 438.25 123 442.118 123C445.987 123 448.88 125.724 448.88 129.496C448.88 133.268 445.898 135.912 442.118 135.912C438.338 135.912 435.268 133.187 435.268 129.496ZM437.113 141.707H447.035V186.494H437.113V141.707Z" fill="#F04B23"/>
<path d="M116.016 234.845C116.016 215.961 127.348 203.227 144.12 203.227C156.153 203.227 165.817 209.11 169.5 221.844L159.837 224.746C157.024 215.872 151.495 211.834 144.112 211.834C133.224 211.834 126.018 220.442 126.018 234.845C126.018 249.247 133.215 257.855 144.112 257.855C151.664 257.855 157.282 253.906 160.272 244.944L170.016 247.845C166.067 260.757 156.403 266.463 144.104 266.463C127.332 266.463 116 253.729 116 234.845" fill="#F04B23"/>
<path d="M177.139 243.093C177.139 230.012 185.215 219.816 199.182 219.816C213.15 219.816 221.314 230.004 221.314 243.093C221.314 256.182 213.15 266.369 199.182 266.369C185.215 266.369 177.139 256.182 177.139 243.093ZM211.304 243.093C211.304 234.138 206.476 228.336 199.182 228.336C191.888 228.336 187.061 234.13 187.061 243.093C187.061 252.055 191.888 257.85 199.182 257.85C206.476 257.85 211.304 252.055 211.304 243.093Z" fill="#F04B23"/>
<path d="M240.711 204.074H230.789V265.554H240.711V204.074Z" fill="#F04B23"/>
<path d="M262.408 204.074H252.486V265.554H262.408V204.074Z" fill="#F04B23"/>
<path d="M314.225 246.172H281.817C282.695 254.167 287.257 258.729 294.108 258.729C298.847 258.729 302.272 256.706 304.561 251.789L313.435 254.425C310.187 262.331 303.602 266.369 294.027 266.369C280.06 266.369 271.984 256.182 271.984 243.093C271.984 230.004 279.979 219.816 293.939 219.816C306.407 219.816 314.491 228.424 314.491 241.86C314.491 243.262 314.402 244.93 314.225 246.164M281.906 239.136H305.093C304.303 231.495 300 227.457 293.939 227.457C287.435 227.457 283.05 231.761 281.906 239.136Z" fill="#F04B23"/>
<path d="M321.769 243.093C321.769 230.012 329.845 219.816 343.812 219.816C353.298 219.816 360.673 224.386 363.486 233.864L353.999 236.766C352.065 230.882 348.471 228.247 343.723 228.247C336.526 228.247 331.69 234.13 331.69 243.093C331.69 252.055 336.518 257.939 343.723 257.939C348.462 257.939 352.331 255.303 354.435 249.42L363.921 252.321C360.931 261.719 353.121 266.369 343.812 266.369C329.845 266.369 321.769 256.182 321.769 243.093Z" fill="#F04B23"/>
<path d="M378.053 252.743V228.943H369.357V220.867H378.666L380.6 208.398H387.975V220.867H400.443V228.943H387.975V252.308C387.975 256.523 390.344 258.369 393.423 258.369C395.446 258.369 397.203 257.933 399.218 256.7L401.942 263.551C398.517 265.743 395.358 266.533 391.489 266.533C383.494 266.533 378.053 261.963 378.053 252.743Z" fill="#F04B23"/>
<path d="M408.96 208.668C408.96 204.888 411.95 202.172 415.811 202.172C419.671 202.172 422.573 204.896 422.573 208.668C422.573 212.44 419.583 215.084 415.811 215.084C412.039 215.084 408.96 212.359 408.96 208.668ZM410.806 220.878H420.727V265.666H410.806V220.878Z" fill="#F04B23"/>
<path d="M443.92 265.628L428.026 220.832H438.471L449.892 256.399H450.416L461.748 220.832H471.935L456.041 265.628H443.92Z" fill="#F04B23"/>
<path d="M518.734 246.172H486.326C487.204 254.167 491.774 258.729 498.617 258.729C503.356 258.729 506.781 256.706 509.07 251.789L517.944 254.425C514.696 262.331 508.111 266.369 498.536 266.369C484.569 266.369 476.493 256.182 476.493 243.093C476.493 230.004 484.488 219.816 498.448 219.816C510.916 219.816 519 228.424 519 241.86C519 243.262 518.911 244.93 518.734 246.164M486.415 239.136H509.602C508.812 231.495 504.509 227.457 498.448 227.457C491.944 227.457 487.559 231.761 486.415 239.136Z" fill="#F04B23"/>
</svg>
