<svg width="404" height="134" viewBox="0 0 404 134" fill="none" xmlns="http://www.w3.org/2000/svg">
<path d="M35.1973 98.8058V73.2139H11.9391V98.8058H0.000244141V35.5H11.9391V62.178H35.1973V35.5H47.0445V98.8058H35.1973Z" fill="#2B2D30"/>
<path d="M102.835 53.7776C102.835 58.6631 100.484 63.3653 94.6036 65.9869C102.019 68.2464 104.732 76.1155 104.732 80.0936C104.732 94.2003 94.15 98.7237 81.0378 98.7237H57.6575V35.418H81.0378C93.5175 35.418 102.83 41.0231 102.83 53.7776H102.835ZM69.4131 60.831H81.0378C88.5448 60.831 90.9875 57.6642 90.9875 54.0481C90.9875 51.1561 88.6364 46.2706 81.0378 46.2706H69.4131V60.831ZM69.4131 87.6006H81.0378C85.9233 87.6006 92.885 85.9736 92.885 80.002C92.885 74.0304 85.9233 71.3216 81.0378 71.3216H69.4131V87.6006Z" fill="#2B2D30"/>
<path d="M17.8803 0.984375V23.6842H29.4483V12.5829H138.717V121.664H29.3655V110.427H17.8716V133.293H150.533V0.984375H17.8803ZM148.64 131.404H118.599L114.987 123.561H140.605V10.6898H62.9834L59.3848 2.87748H148.64V131.404Z" fill="#2B2D30"/>
<path d="M210.458 52.5391V81.8212H207.488V58.3972L195.985 78.1004H194.52L183.017 58.5237V81.8256H180.047V52.5434H182.598L195.314 74.2531L207.907 52.5434H210.458V52.5391Z" fill="#2B2D30"/>
<path d="M261.62 79.1429V81.8212H240.914V52.5391H260.992V55.2173H244.006V65.6338H259.151V68.2684H244.006V79.1429H261.616H261.62Z" fill="#2B2D30"/>
<path d="M289.817 52.5391H301.738C311.108 52.5391 317.424 58.563 317.424 67.1823C317.424 75.8016 311.108 81.8212 301.738 81.8212H289.817V52.5391ZM301.572 79.1429C309.354 79.1429 314.375 74.2051 314.375 67.178C314.375 60.1508 309.354 55.213 301.572 55.213H292.914V79.1386H301.572V79.1429Z" fill="#2B2D30"/>
<path d="M345.283 52.5391H348.38V81.8212H345.283V52.5391Z" fill="#2B2D30"/>
<path d="M397.196 74.0001H380.882L377.366 81.8212H374.147L387.534 52.5391H390.588L403.975 81.8212H400.712L397.196 74.0001ZM396.066 71.492L389.039 55.7626L382.012 71.492H396.066Z" fill="#2B2D30"/>
</svg>
